<svg viewBox="0 75.9 595.3 690" xml:space="preserve" xmlns="http://www.w3.org/2000/svg"><path d="M276.4 315c-45.2 0-82 36.8-82 82s36.8 82 82 82 82-36.8 82-82-36.8-82-82-82zM400.6 507.3l-13.8 13.8 26.8 26.8c2.1 2.1 4.6 2.4 5.9 2.4 1.3 0 3.8-.3 5.9-2.4l2.1-2.1c3.2-3.2 3.2-8.5 0-11.8l-26.9-26.7z" fill="#eb9dda" class="fill-000000"></path><path d="M297.6 76.6 0 248.8v344.4l297.6 172.2 297.6-172.2V248.8L297.6 76.6zm143.6 483.1-2.1 2.1c-5.4 5.4-12.6 8.2-19.7 8.2s-14.3-2.7-19.7-8.2l-35.4-35.4c-8.2-8.2-10.2-20.2-6.1-30.3l-11.4-11.4c-19.3 15.5-43.7 24.8-70.4 24.8C214.3 509.4 164 459.1 164 397s50.3-112.4 112.4-112.4c62.1 0 112.4 50.3 112.4 112.4 0 26.6-9.3 51.1-24.8 70.4l11.4 11.4c3.4-1.4 7-2.1 10.6-2.1 7.1 0 14.3 2.7 19.7 8.2l35.4 35.4c11 10.8 11 28.5.1 39.4z" fill="#eb9dda" class="fill-000000"></path></svg>