<svg viewBox="0 75.9 595.3 690" xml:space="preserve" xmlns="http://www.w3.org/2000/svg"><path d="m292.5 374.2-70.6-70.6-41.5 41.5 11.8 11.8 20.7-20.8 11.8 11.9-20.7 20.7 17.8 17.8 13.3-13.3 11.8 11.8-13.3 13.3 17.4 17.4zM389.4 360.2l11.1-11.1c4-4 6.1-9.2 6.1-14.8 0-5.6-2.2-10.9-6.1-14.8-4-4-9.2-6.1-14.8-6.1-5.6 0-10.9 2.2-14.8 6.1l-163.1 163c-.3.3-.6.7-.7 1.1l-15 44.2 44.5-15.1c.2-.1.5-.3.9-.6l.5-.5-17.5-17.5L372 342.8l17.4 17.4z" fill="#eb9dda" class="fill-000000"></path><path d="M297.6 76.6 0 248.8v344.4l297.6 172.2 297.6-172.2V248.8L297.6 76.6zm129.1 431.9L385.3 550c-6.5 6.5-17.2 6.5-23.7 0l-12.3-12.3-11.2-11.2-45.7-45.6-43.1 43.1c-2 2-4.4 3.5-7 4.5l-76.9 26.1 26-76.7c1.1-3 2.7-5.3 4.6-7.2l43.1-43.1-47-47-1.3-1.3-22.3-22.3c-6.5-6.5-6.5-17.2 0-23.7l41.5-41.5c6.5-6.5 17.2-6.5 23.7 0l70.6 70.6 54.8-54.8c7.1-7.1 16.6-11 26.7-11 10.1 0 19.5 3.9 26.7 11 7.1 7.1 11 16.6 11 26.7 0 10.1-3.9 19.5-11 26.7l-54.8 54.8 69.1 69.1c6.5 6.4 6.5 17.1-.1 23.6z" fill="#eb9dda" class="fill-000000"></path><path d="m304.3 469 16 16.1 13.4-13.4 11.8 11.9-13.3 13.3 17.8 17.8 20.7-20.8 11.8 11.9-20.7 20.7 11.6 11.6 41.5-41.4-69.1-69.1z" fill="#eb9dda" class="fill-000000"></path></svg>