<svg viewBox="0 75.9 595.3 690" xml:space="preserve" xmlns="http://www.w3.org/2000/svg"><path d="M297.6 76.6 0 248.8v344.4l297.6 172.2 297.6-172.2V248.8L297.6 76.6zm.5 459.8c-11 0-22.1-1.1-33-3.2-.4-.1-.8-.1-1.3-.2-2.8-.6-5.8-.9-9-.9-21.7 0-49.4 13.7-71.6 24.8-3.8 1.9-7.5 3.7-11.1 5.4-1.3.6-2.6.9-3.9.9-2.6 0-5.2-1.1-7-3.2-2.7-3.2-3.1-7.8-.9-11.4 26.3-42.4 20.7-53 8.4-76.2-12.5-18.8-19.1-40.2-19.1-61.9 0-69.4 66.6-125.9 148.4-125.9S446.6 341 446.6 410.4c0 69.5-66.6 126-148.5 126z" fill="#eb9dda" class="fill-000000"></path><path d="M298.1 303.6c-71.6 0-129.9 47.9-129.9 106.9 0 18.1 5.7 36.1 16.4 51.9.4.6.7 1.2 1 1.9 12.2 23.4 17.1 39.7 4.8 68 21.1-10.1 43.6-19.2 64.5-19.2 4.4 0 8.7.4 12.7 1.3.1 0 .7.1.8.1 10 1.9 19.9 2.9 29.8 2.9 71.6 0 129.9-47.9 129.9-106.9-.1-59-58.3-106.9-130-106.9zM326 458.3h-92.8v-19.1H326v19.1zm37.1-38.2H233.2V401h129.9v19.1zm0-38.2H233.2v-19.1h129.9v19.1z" fill="#eb9dda" class="fill-000000"></path></svg>